<svg height="36" viewBox="0 0 36 36" width="36" xmlns="http://www.w3.org/2000/svg"><g fill="none" fill-rule="evenodd" transform="translate(1 1)"><g stroke="#fd8a2e" stroke-linecap="square"><path d="m10.8181818 3.05404504v-3.05404504"/><path d="m23.1818182 3.05404504v-3.05404504"/><path d="m17 3.05404504v-3.05404504"/><path d="m34 22.9053378h-3.0909091"/><path d="m34 10.6891576h-3.0909091"/><path d="m34 16.7972477h-3.0909091"/><path d="m3.09090909 22.9053378h-3.09090909"/><path d="m3.09090909 10.6891576h-3.09090909"/><path d="m3.09090909 16.7972477h-3.09090909"/><path d="m10.8181818 33.5944954v-3.054045"/><path d="m23.1818182 33.5944954v-3.054045"/><path d="m17 33.5944954v-3.054045"/><rect height="27.486405" rx="4" width="27.818182" x="3.090909" y="3.054045"/><path d="m7.727273 7.635113h18.545455v18.32427h-18.545455z"/></g><path d="m17.7503182 21.3019641-.9921818-2.7242081h-3.7964091l-.9705455 2.7242081h-1.7139091l3.7168182-9.8492952h1.7695455l3.7090909 9.8492952zm-1.4195-4.106927-.9272727-2.6722894c-.068-.1786617-.1622728-.4603973-.2828182-.845207-.1205455-.3848097-.2029697-.6665453-.2472728-.845207-.1407504.6120409-.319853 1.2148491-.5362727 1.8049407l-.8963636 2.5562357z" fill="#fd8a2e"/><path d="m20.8636364 21.3019641v-9.8088291h1.5454545v9.8088291z" fill="#fd8a2e"/></g></svg>