<svg height="33" viewBox="0 0 32 33" width="32" xmlns="http://www.w3.org/2000/svg"><g fill="none" fill-rule="evenodd" stroke="#fd8a2e" stroke-linecap="square" transform="translate(1)"><path d="m26.2295082 32v-7.9989508c4.4803613-4.2984739 5.4921946-11.0804982 2.4616245-16.49955353-3.0305701-5.41905531-9.3386737-8.10745435-15.3465821-6.54043425-6.00790839 1.56702011-10.19931678 6.99396729-10.19700962 13.20287298v1.5737705l-3.14754098 5.7704918 3.14754098 1.5737705v5.7704918c0 1.7383389 1.4092021 3.147541 3.14754099 3.147541h6.81967213c4.0561241 0 7.3442623-3.2881382 7.3442623-7.3442623v-7.8688525"/><circle cx="20.459016" cy="14.163934" r="2.622951"/><path d="m24.9101639 18.615082c2.4581857-2.4583487 2.4581857-6.4439465 0-8.90229511"/><path d="m16.0078689 18.615082c-2.4581857-2.4583487-2.4581857-6.4439465 0-8.90229511"/><path d="m8.78163934 15.7377049c-.68528577-.9862083-1.81022155-1.5741538-3.01114754-1.5737707"/></g></svg>